<svg width="45" height="68" viewBox="0 0 45 68" fill="none" xmlns="http://www.w3.org/2000/svg">
<g clip-path="url(#clip0_71_42)">
<path d="M11.2523 68.0005C17.461 68.0005 22.5 62.9232 22.5 56.6672V45.3339H11.2523C5.04351 45.3339 0.0045166 50.4112 0.0045166 56.6672C0.0045166 62.9232 5.04351 68.0005 11.2523 68.0005Z" fill="#0ACF83"/>
<path d="M0.0045166 33.9993C0.0045166 27.7433 5.04351 22.666 11.2523 22.666H22.5V45.3326H11.2523C5.04351 45.3326 0.0045166 40.2553 0.0045166 33.9993Z" fill="#A259FF"/>
<path d="M0.00567627 11.3333C0.00567627 5.07733 5.04467 0 11.2534 0H22.5012V22.6667H11.2534C5.04467 22.6667 0.00567627 17.5893 0.00567627 11.3333Z" fill="#F24E1E"/>
<path d="M22.5 0H33.7478C39.9565 0 44.9955 5.07733 44.9955 11.3333C44.9955 17.5893 39.9565 22.6667 33.7478 22.6667H22.5V0Z" fill="#FF7262"/>
<path d="M44.9955 33.9993C44.9955 40.2553 39.9565 45.3326 33.7478 45.3326C27.539 45.3326 22.5 40.2553 22.5 33.9993C22.5 27.7433 27.539 22.666 33.7478 22.666C39.9565 22.666 44.9955 27.7433 44.9955 33.9993Z" fill="#1ABCFE"/>
</g>
<defs>
<clipPath id="clip0_71_42">
<rect width="45" height="68" fill="white"/>
</clipPath>
</defs>
</svg>
